<?xml version="1.0" encoding="iso-8859-1"?>
<!-- Uploaded to: SVG Repo, www.svgrepo.com, Generator: SVG Repo Mixer Tools -->
<svg fill="#000000" height="800px" width="800px" version="1.1" id="Layer_1" xmlns="http://www.w3.org/2000/svg" xmlns:xlink="http://www.w3.org/1999/xlink" 
	 viewBox="0 0 511.999 511.999" xml:space="preserve">
<g>
	<g>
		<path d="M453.882,288.214l-2.532-2.703l-30.742-31.171V144.025l-67.083-67.082H100.941v177.384l-30.61,31.046l-0.105,0.108
			c-1.387,1.462-2.124,3.367-2.115,5.347h-0.067v221.172h385.456V290.828H453.5L453.882,288.214z M420.607,276.09l12.879,13.059
			l-12.879,7.424V276.09z M357.997,103.018l36.534,36.533h-36.534V103.018z M116.216,238.836V92.218h226.506v62.607h62.609v84.027
			v66.527l-144.557,83.399L116.216,305.38V238.836z M100.941,276.083v20.49l-12.881-7.425L100.941,276.083z M83.32,304.051
			l162.169,93.545L83.32,491.14V304.051z M104.208,496.725l156.565-90.313l156.566,90.313H104.208z M438.227,491.14l-162.17-93.545
			l162.17-93.545V491.14z"/>
	</g>
</g>
<g>
	<g>
		<polygon points="290.264,0.078 282.682,7.662 275.021,0 264.219,10.801 282.682,29.263 301.066,10.88 		"/>
	</g>
</g>
<g>
	<g>
		<polygon points="453.488,59.985 445.904,67.568 438.244,59.906 427.442,70.708 445.904,89.169 464.288,70.787 		"/>
	</g>
</g>
<g>
	<g>
		<polygon points="73.755,128.534 66.173,136.116 58.511,128.454 47.711,139.256 66.173,157.717 84.556,139.335 		"/>
	</g>
</g>
<g>
	<g>
		<path d="M287.043,179.792c-10.033,0-19.417,3.98-26.3,10.822c-6.885-6.842-16.268-10.822-26.3-10.822
			c-20.336,0-36.88,16.746-36.88,37.331c0,9.376,2.742,14.925,4.744,18.977l0.119,0.24c8.013,16.234,48.818,50.325,53.444,54.159
			l4.86,4.028l4.87-4.015c4.669-3.849,45.833-38.072,53.513-54.282l0.204-0.429c1.859-3.912,4.67-9.823,4.67-18.678
			C323.987,196.538,307.414,179.792,287.043,179.792z M305.522,229.242l-0.212,0.446c-4.258,8.984-27.814,30.767-44.556,44.961
			c-16.647-14.181-40.14-35.969-44.634-45.073l-0.122-0.246c-1.627-3.292-3.164-6.401-3.164-12.209
			c0.002-12.366,9.492-22.054,21.608-22.054c8.222,0,15.709,4.527,19.54,11.816l6.761,12.864l6.76-12.865
			c3.83-7.288,11.316-11.816,19.539-11.816c12.151,0,21.669,9.689,21.669,22.056C308.712,222.532,307.09,225.943,305.522,229.242z"
			/>
	</g>
</g>
</svg>