<svg display="none" xmlns="http://www.w3.org/2000/svg">
    <symbol id="star" width="72" height="72" viewBox="0 0 72 72">
        <path d="M20.5266 0.254759L40.0931 19.7805L64.7482 7.24422L52.1858 31.8481L71.7522 51.3739L44.4218 47.0542L31.8593 71.6581L27.5306 44.3845L0.200156 40.0647L24.8553 27.5284L20.5266 0.254759Z"/>
    </symbol>
    <symbol id="facebook" width="52" height="53" viewBox="0 0 52 53">
        <path d="M31.5122 27.4585L32.2065 22.9341H27.8652V19.998C27.8652 18.7603 28.4717 17.5537 30.416 17.5537H32.3896V13.7017C32.3896 13.7017 30.5986 13.396 28.8862 13.396C25.311 13.396 22.9741 15.563 22.9741 19.4858V22.9341H19V27.4585H22.9741V38.396H27.8652V27.4585H31.5122Z"/>
    </symbol>
    <symbol id="linkedin" width="52" height="53" viewBox="0 0 52 53">
        <path d="M20.875 34.396H17.4766V21.7163H20.875V34.396ZM17.2773 18.4351C17.2773 17.9272 17.4453 17.5093 17.7812 17.1812C18.125 16.853 18.5898 16.689 19.1758 16.689C19.7539 16.689 20.2148 16.853 20.5586 17.1812C20.9023 17.5093 21.0742 17.9272 21.0742 18.4351C21.0742 18.9507 20.8984 19.3726 20.5469 19.7007C20.2031 20.0288 19.7461 20.1929 19.1758 20.1929C18.6055 20.1929 18.1445 20.0288 17.793 19.7007C17.4492 19.3726 17.2773 18.9507 17.2773 18.4351ZM27.273 21.7163L27.3784 23.1812C28.2847 22.0483 29.4995 21.4819 31.023 21.4819C32.3667 21.4819 33.3667 21.8765 34.023 22.6655C34.6792 23.4546 35.0152 24.6343 35.0308 26.2046V34.396H31.6441V26.2866C31.6441 25.5679 31.4878 25.0483 31.1753 24.728C30.8628 24.3999 30.3433 24.2358 29.6167 24.2358C28.6636 24.2358 27.9488 24.6421 27.4722 25.4546V34.396H24.0855V21.7163H27.273Z"/>
    </symbol>
    <symbol id="instagram" width="52" height="53" viewBox="0 0 52 53">
        <path d="M25.946 20.7268C22.8406 20.7268 20.3357 23.2317 20.3357 26.3372C20.3357 29.4426 22.8406 31.9475 25.946 31.9475C29.0515 31.9475 31.5564 29.4426 31.5564 26.3372C31.5564 23.2317 29.0515 20.7268 25.946 20.7268ZM25.946 29.9846C23.9392 29.9846 22.2986 28.3489 22.2986 26.3372C22.2986 24.3254 23.9343 22.6897 25.946 22.6897C27.9578 22.6897 29.5935 24.3254 29.5935 26.3372C29.5935 28.3489 27.9529 29.9846 25.946 29.9846ZM33.0945 20.4973C33.0945 21.2249 32.5085 21.8059 31.7859 21.8059C31.0584 21.8059 30.4773 21.22 30.4773 20.4973C30.4773 19.7747 31.0632 19.1887 31.7859 19.1887C32.5085 19.1887 33.0945 19.7747 33.0945 20.4973ZM36.8103 21.8254C36.7273 20.0725 36.3269 18.5198 35.0427 17.2405C33.7634 15.9612 32.2107 15.5608 30.4578 15.4729C28.6511 15.3704 23.2361 15.3704 21.4294 15.4729C19.6814 15.5559 18.1287 15.9563 16.8445 17.2356C15.5603 18.5149 15.1648 20.0676 15.0769 21.8206C14.9744 23.6272 14.9744 29.0422 15.0769 30.8489C15.1599 32.6018 15.5603 34.1545 16.8445 35.4338C18.1287 36.7131 19.6765 37.1135 21.4294 37.2014C23.2361 37.304 28.6511 37.304 30.4578 37.2014C32.2107 37.1184 33.7634 36.718 35.0427 35.4338C36.322 34.1545 36.7224 32.6018 36.8103 30.8489C36.9128 29.0422 36.9128 23.6321 36.8103 21.8254ZM34.4763 32.7874C34.0955 33.7444 33.3582 34.4817 32.3962 34.8674C30.9558 35.4387 27.5378 35.3069 25.946 35.3069C24.3542 35.3069 20.9314 35.4338 19.4958 34.8674C18.5388 34.4866 17.8015 33.7493 17.4158 32.7874C16.8445 31.3469 16.9763 27.929 16.9763 26.3372C16.9763 24.7454 16.8494 21.3225 17.4158 19.887C17.7966 18.9299 18.5339 18.1926 19.4958 17.8069C20.9363 17.2356 24.3542 17.3674 25.946 17.3674C27.5378 17.3674 30.9607 17.2405 32.3962 17.8069C33.3533 18.1877 34.0906 18.925 34.4763 19.887C35.0476 21.3274 34.9158 24.7454 34.9158 26.3372C34.9158 27.929 35.0476 31.3518 34.4763 32.7874Z"/>
    </symbol>
    <symbol  id="twitter" width="52" height="53" viewBox="0 0 52 53">
        <path d="M38.4302 21.4563C38.446 21.6783 38.446 21.9004 38.446 22.1225C38.446 28.8959 33.2906 36.7005 23.868 36.7005C20.9651 36.7005 18.2684 35.8598 16 34.4004C16.4125 34.448 16.809 34.4639 17.2373 34.4639C19.6326 34.4639 21.8375 33.6549 23.5983 32.2748C21.3458 32.2272 19.4581 30.752 18.8077 28.7215C19.125 28.769 19.4422 28.8008 19.7754 28.8008C20.2354 28.8008 20.6955 28.7373 21.1237 28.6263C18.776 28.1504 17.0152 26.0882 17.0152 23.5978V23.5343C17.6973 23.915 18.4905 24.153 19.3312 24.1847C17.9511 23.2646 17.0469 21.6942 17.0469 19.9175C17.0469 18.9658 17.3007 18.0933 17.7449 17.3319C20.2671 20.441 24.0583 22.4714 28.3096 22.6936C28.2303 22.3128 28.1827 21.9163 28.1827 21.5197C28.1827 18.6961 30.4669 16.396 33.3064 16.396C34.7816 16.396 36.1141 17.0146 37.05 18.014C38.208 17.7919 39.3184 17.3636 40.302 16.7767C39.9212 17.9665 39.1122 18.9658 38.0494 19.6003C39.0805 19.4893 40.0799 19.2037 40.9999 18.8072C40.302 19.8224 39.4295 20.7265 38.4302 21.4563Z"/>
    </symbol>
    <symbol id="logo" width="32" height="30" viewBox="0 0 32 30">
        <path d="M31.1718 3.20422C21.8451 -0.11135 11.7076 -0.3852 2.21558 2.42202C1.83828 2.5123 1.48304 2.67769 1.17108 2.90831C0.859111 3.13893 0.596816 3.43004 0.39985 3.76427C0.202884 4.09851 0.0752869 4.469 0.0246769 4.85363C-0.0259332 5.23827 0.00148172 5.62916 0.105285 6.00297C0.624801 8.08787 1.38259 10.4833 2.29272 12.6551C2.30835 12.7059 2.33276 12.6815 2.33276 12.6307C2.20093 11.6122 2.98411 10.3261 4.5202 9.85832C11.9023 7.50895 19.8468 7.61413 27.1641 10.1581C27.434 10.2504 27.7196 10.2878 28.0042 10.2679C28.2887 10.2481 28.5664 10.1715 28.8209 10.0426C29.0754 9.91372 29.3015 9.7352 29.4859 9.51755C29.6702 9.29991 29.8092 9.04754 29.8945 8.77535C30.8046 5.84575 31.1718 3.85654 31.2626 3.35851C31.2782 3.26574 31.1962 3.23059 31.1718 3.2052V3.20422ZM8.66949 9.64935C7.55136 9.88274 6.0055 10.2499 4.84538 10.6347C2.52611 11.4344 2.63353 14.2566 3.86885 15.157C3.95967 14.6336 4.5202 13.9217 5.14518 13.6815C7.46054 12.7713 9.9468 12.2274 12.4604 12.0028C11.1831 11.4843 9.93703 10.7411 8.68609 9.64837L8.66949 9.64935ZM27.1328 15.2996C23.8008 13.734 20.1887 12.8523 16.5101 12.7065C12.8315 12.5608 9.16094 13.1539 5.71547 14.451C4.61101 14.8679 3.91963 16.2117 4.61101 17.487C5.81883 19.6707 7.18954 21.7602 8.71148 23.7378C8.49274 22.98 8.87945 21.5767 10.3638 21.1178C14.4691 19.8561 18.7766 20.3912 21.6398 21.5504C22.4484 21.8756 23.5929 21.6783 24.2345 20.7174C25.3286 19.0319 26.3237 17.2842 27.2148 15.4832C27.2549 15.4021 27.2149 15.3416 27.1328 15.2996ZM20.4807 25.4165C19.2797 24.81 18.1814 24.0189 17.2259 23.0718C16.7835 22.6294 16.1322 21.9937 15.4457 21.2359C13.8783 21.2359 12.3569 21.3931 10.73 21.9127C9.21928 22.3853 9.07768 24.1304 9.73879 25.0405C10.8569 26.434 11.6411 27.1859 12.892 28.4789C13.555 29.1291 14.4452 29.4954 15.3738 29.5C16.3024 29.5045 17.1962 29.147 17.8655 28.5033C18.842 27.5268 19.4426 26.8754 20.5461 25.6245C20.6115 25.5581 20.5861 25.4419 20.4797 25.4165H20.4807Z"/>
    </symbol>
    <symbol id="paperBag" height="35px" width="35px" viewBox="0 0 512 512">
    <path class="st0" d="M488.765,125.844l-40.089-33.043l-1.497-30.898H344.554c2.732,7.516,4.583,15.441,5.316,23.706h74.73
		l0.91,18.822l23.528,19.392H334.491V93.966c-0.007-43.36-35.142-78.487-78.487-78.502c-43.361,0.008-78.495,35.142-78.495,78.502
		c0,1.436,0,13.79,0,29.857H62.452l22.834-19.3l1.674-18.914h75.169c0.725-8.265,2.578-16.19,5.309-23.706H65.26l-2.724,30.813
		l-39.309,33.22l-0.316,5.047L0,496.536h512L488.765,125.844z M195.72,93.966c0.008-16.684,6.737-31.677,17.656-42.619
		c10.935-10.927,25.952-17.664,42.627-17.664c16.668,0,31.685,6.737,42.612,17.664c10.927,10.942,17.656,25.936,17.656,42.619
		v29.857H195.72C195.72,107.757,195.72,95.402,195.72,93.966z M25.233,472.83l20.89-333.203h131.386c0,26.561,0,56.425,0,65.322
		c-7.886,3.496-13.404,11.351-13.404,20.557c0,12.424,10.078,22.494,22.51,22.494c12.423,0,22.502-10.07,22.502-22.494
		c0-9.198-5.517-17.061-13.396-20.557c0-8.89,0-38.754,0-65.322h120.552v65.33c-7.871,3.496-13.381,11.352-13.381,20.55
		c0,12.424,10.062,22.494,22.486,22.494c12.44,0,22.51-10.07,22.51-22.494c0-9.198-5.509-17.061-13.396-20.557v-65.322h131.386
		l20.889,333.203H25.233z"/>
	<path class="st0" d="M286.693,61.903h-61.379l-0.764,0.625c-6.382,6.397-10.548,14.392-12.2,23.081h87.3
		c-1.644-8.689-5.819-16.691-12.216-23.096L286.693,61.903z"/>
    </symbol>
    <symbol id="heart" width="40px" height="40px" viewBox="0 0 24 24">
    <path d="M12 19.7501C11.8012 19.7499 11.6105 19.6708 11.47 19.5301L4.70001 12.7401C3.78387 11.8054 3.27072 10.5488 3.27072 9.24006C3.27072 7.9313 3.78387 6.6747 4.70001 5.74006C5.6283 4.81186 6.88727 4.29042 8.20001 4.29042C9.51274 4.29042 10.7717 4.81186 11.7 5.74006L12 6.00006L12.28 5.72006C12.739 5.25606 13.2857 4.88801 13.8883 4.63736C14.4909 4.3867 15.1374 4.25845 15.79 4.26006C16.442 4.25714 17.088 4.38382 17.6906 4.63274C18.2931 4.88167 18.8402 5.24786 19.3 5.71006C20.2161 6.6447 20.7293 7.9013 20.7293 9.21006C20.7293 10.5188 20.2161 11.7754 19.3 12.7101L12.53 19.5001C12.463 19.5752 12.3815 19.636 12.2904 19.679C12.1994 19.7219 12.1006 19.7461 12 19.7501ZM8.21001 5.75006C7.75584 5.74675 7.30551 5.83342 6.885 6.00505C6.4645 6.17669 6.08215 6.42989 5.76001 6.75006C5.11088 7.40221 4.74646 8.28491 4.74646 9.20506C4.74646 10.1252 5.11088 11.0079 5.76001 11.6601L12 17.9401L18.23 11.6801C18.5526 11.3578 18.8086 10.9751 18.9832 10.5538C19.1578 10.1326 19.2477 9.68107 19.2477 9.22506C19.2477 8.76905 19.1578 8.31752 18.9832 7.89627C18.8086 7.47503 18.5526 7.09233 18.23 6.77006C17.9104 6.44929 17.5299 6.1956 17.1109 6.02387C16.6919 5.85215 16.2428 5.76586 15.79 5.77006C15.3358 5.76675 14.8855 5.85342 14.465 6.02505C14.0445 6.19669 13.6621 6.44989 13.34 6.77006L12.53 7.58006C12.3869 7.71581 12.1972 7.79149 12 7.79149C11.8028 7.79149 11.6131 7.71581 11.47 7.58006L10.66 6.77006C10.3395 6.44628 9.95791 6.18939 9.53733 6.01429C9.11675 5.83919 8.66558 5.74937 8.21001 5.75006Z"/></symbol>
</svg>