<svg display="none" xmlns="http://www.w3.org/2000/svg">
    <symbol id="star" width="72" height="72" viewBox="0 0 72 72">
        <path d="M20.5266 0.254759L40.0931 19.7805L64.7482 7.24422L52.1858 31.8481L71.7522 51.3739L44.4218 47.0542L31.8593 71.6581L27.5306 44.3845L0.200156 40.0647L24.8553 27.5284L20.5266 0.254759Z"/>
    </symbol>
    <symbol id="facebook" width="52" height="53" viewBox="0 0 52 53">
        <path d="M31.5122 27.4585L32.2065 22.9341H27.8652V19.998C27.8652 18.7603 28.4717 17.5537 30.416 17.5537H32.3896V13.7017C32.3896 13.7017 30.5986 13.396 28.8862 13.396C25.311 13.396 22.9741 15.563 22.9741 19.4858V22.9341H19V27.4585H22.9741V38.396H27.8652V27.4585H31.5122Z"/>
    </symbol>
    <symbol id="linkedin" width="52" height="53" viewBox="0 0 52 53">
        <path d="M20.875 34.396H17.4766V21.7163H20.875V34.396ZM17.2773 18.4351C17.2773 17.9272 17.4453 17.5093 17.7812 17.1812C18.125 16.853 18.5898 16.689 19.1758 16.689C19.7539 16.689 20.2148 16.853 20.5586 17.1812C20.9023 17.5093 21.0742 17.9272 21.0742 18.4351C21.0742 18.9507 20.8984 19.3726 20.5469 19.7007C20.2031 20.0288 19.7461 20.1929 19.1758 20.1929C18.6055 20.1929 18.1445 20.0288 17.793 19.7007C17.4492 19.3726 17.2773 18.9507 17.2773 18.4351ZM27.273 21.7163L27.3784 23.1812C28.2847 22.0483 29.4995 21.4819 31.023 21.4819C32.3667 21.4819 33.3667 21.8765 34.023 22.6655C34.6792 23.4546 35.0152 24.6343 35.0308 26.2046V34.396H31.6441V26.2866C31.6441 25.5679 31.4878 25.0483 31.1753 24.728C30.8628 24.3999 30.3433 24.2358 29.6167 24.2358C28.6636 24.2358 27.9488 24.6421 27.4722 25.4546V34.396H24.0855V21.7163H27.273Z"/>
    </symbol>
    <symbol id="instagram" width="52" height="53" viewBox="0 0 52 53">
        <path d="M25.946 20.7268C22.8406 20.7268 20.3357 23.2317 20.3357 26.3372C20.3357 29.4426 22.8406 31.9475 25.946 31.9475C29.0515 31.9475 31.5564 29.4426 31.5564 26.3372C31.5564 23.2317 29.0515 20.7268 25.946 20.7268ZM25.946 29.9846C23.9392 29.9846 22.2986 28.3489 22.2986 26.3372C22.2986 24.3254 23.9343 22.6897 25.946 22.6897C27.9578 22.6897 29.5935 24.3254 29.5935 26.3372C29.5935 28.3489 27.9529 29.9846 25.946 29.9846ZM33.0945 20.4973C33.0945 21.2249 32.5085 21.8059 31.7859 21.8059C31.0584 21.8059 30.4773 21.22 30.4773 20.4973C30.4773 19.7747 31.0632 19.1887 31.7859 19.1887C32.5085 19.1887 33.0945 19.7747 33.0945 20.4973ZM36.8103 21.8254C36.7273 20.0725 36.3269 18.5198 35.0427 17.2405C33.7634 15.9612 32.2107 15.5608 30.4578 15.4729C28.6511 15.3704 23.2361 15.3704 21.4294 15.4729C19.6814 15.5559 18.1287 15.9563 16.8445 17.2356C15.5603 18.5149 15.1648 20.0676 15.0769 21.8206C14.9744 23.6272 14.9744 29.0422 15.0769 30.8489C15.1599 32.6018 15.5603 34.1545 16.8445 35.4338C18.1287 36.7131 19.6765 37.1135 21.4294 37.2014C23.2361 37.304 28.6511 37.304 30.4578 37.2014C32.2107 37.1184 33.7634 36.718 35.0427 35.4338C36.322 34.1545 36.7224 32.6018 36.8103 30.8489C36.9128 29.0422 36.9128 23.6321 36.8103 21.8254ZM34.4763 32.7874C34.0955 33.7444 33.3582 34.4817 32.3962 34.8674C30.9558 35.4387 27.5378 35.3069 25.946 35.3069C24.3542 35.3069 20.9314 35.4338 19.4958 34.8674C18.5388 34.4866 17.8015 33.7493 17.4158 32.7874C16.8445 31.3469 16.9763 27.929 16.9763 26.3372C16.9763 24.7454 16.8494 21.3225 17.4158 19.887C17.7966 18.9299 18.5339 18.1926 19.4958 17.8069C20.9363 17.2356 24.3542 17.3674 25.946 17.3674C27.5378 17.3674 30.9607 17.2405 32.3962 17.8069C33.3533 18.1877 34.0906 18.925 34.4763 19.887C35.0476 21.3274 34.9158 24.7454 34.9158 26.3372C34.9158 27.929 35.0476 31.3518 34.4763 32.7874Z"/>
    </symbol>
    <symbol  id="twitter" width="52" height="53" viewBox="0 0 52 53">
        <path d="M38.4302 21.4563C38.446 21.6783 38.446 21.9004 38.446 22.1225C38.446 28.8959 33.2906 36.7005 23.868 36.7005C20.9651 36.7005 18.2684 35.8598 16 34.4004C16.4125 34.448 16.809 34.4639 17.2373 34.4639C19.6326 34.4639 21.8375 33.6549 23.5983 32.2748C21.3458 32.2272 19.4581 30.752 18.8077 28.7215C19.125 28.769 19.4422 28.8008 19.7754 28.8008C20.2354 28.8008 20.6955 28.7373 21.1237 28.6263C18.776 28.1504 17.0152 26.0882 17.0152 23.5978V23.5343C17.6973 23.915 18.4905 24.153 19.3312 24.1847C17.9511 23.2646 17.0469 21.6942 17.0469 19.9175C17.0469 18.9658 17.3007 18.0933 17.7449 17.3319C20.2671 20.441 24.0583 22.4714 28.3096 22.6936C28.2303 22.3128 28.1827 21.9163 28.1827 21.5197C28.1827 18.6961 30.4669 16.396 33.3064 16.396C34.7816 16.396 36.1141 17.0146 37.05 18.014C38.208 17.7919 39.3184 17.3636 40.302 16.7767C39.9212 17.9665 39.1122 18.9658 38.0494 19.6003C39.0805 19.4893 40.0799 19.2037 40.9999 18.8072C40.302 19.8224 39.4295 20.7265 38.4302 21.4563Z"/>
    </symbol>
    <symbol id="logo" width="32" height="30" viewBox="0 0 32 30">
        <path d="M31.1718 3.20422C21.8451 -0.11135 11.7076 -0.3852 2.21558 2.42202C1.83828 2.5123 1.48304 2.67769 1.17108 2.90831C0.859111 3.13893 0.596816 3.43004 0.39985 3.76427C0.202884 4.09851 0.0752869 4.469 0.0246769 4.85363C-0.0259332 5.23827 0.00148172 5.62916 0.105285 6.00297C0.624801 8.08787 1.38259 10.4833 2.29272 12.6551C2.30835 12.7059 2.33276 12.6815 2.33276 12.6307C2.20093 11.6122 2.98411 10.3261 4.5202 9.85832C11.9023 7.50895 19.8468 7.61413 27.1641 10.1581C27.434 10.2504 27.7196 10.2878 28.0042 10.2679C28.2887 10.2481 28.5664 10.1715 28.8209 10.0426C29.0754 9.91372 29.3015 9.7352 29.4859 9.51755C29.6702 9.29991 29.8092 9.04754 29.8945 8.77535C30.8046 5.84575 31.1718 3.85654 31.2626 3.35851C31.2782 3.26574 31.1962 3.23059 31.1718 3.2052V3.20422ZM8.66949 9.64935C7.55136 9.88274 6.0055 10.2499 4.84538 10.6347C2.52611 11.4344 2.63353 14.2566 3.86885 15.157C3.95967 14.6336 4.5202 13.9217 5.14518 13.6815C7.46054 12.7713 9.9468 12.2274 12.4604 12.0028C11.1831 11.4843 9.93703 10.7411 8.68609 9.64837L8.66949 9.64935ZM27.1328 15.2996C23.8008 13.734 20.1887 12.8523 16.5101 12.7065C12.8315 12.5608 9.16094 13.1539 5.71547 14.451C4.61101 14.8679 3.91963 16.2117 4.61101 17.487C5.81883 19.6707 7.18954 21.7602 8.71148 23.7378C8.49274 22.98 8.87945 21.5767 10.3638 21.1178C14.4691 19.8561 18.7766 20.3912 21.6398 21.5504C22.4484 21.8756 23.5929 21.6783 24.2345 20.7174C25.3286 19.0319 26.3237 17.2842 27.2148 15.4832C27.2549 15.4021 27.2149 15.3416 27.1328 15.2996ZM20.4807 25.4165C19.2797 24.81 18.1814 24.0189 17.2259 23.0718C16.7835 22.6294 16.1322 21.9937 15.4457 21.2359C13.8783 21.2359 12.3569 21.3931 10.73 21.9127C9.21928 22.3853 9.07768 24.1304 9.73879 25.0405C10.8569 26.434 11.6411 27.1859 12.892 28.4789C13.555 29.1291 14.4452 29.4954 15.3738 29.5C16.3024 29.5045 17.1962 29.147 17.8655 28.5033C18.842 27.5268 19.4426 26.8754 20.5461 25.6245C20.6115 25.5581 20.5861 25.4419 20.4797 25.4165H20.4807Z"/>
    </symbol>
    <symbol id="paperBag" height="28px" width="28px" viewBox="0 0 512 512">
    <path class="st0" d="M488.765,125.844l-40.089-33.043l-1.497-30.898H344.554c2.732,7.516,4.583,15.441,5.316,23.706h74.73
		l0.91,18.822l23.528,19.392H334.491V93.966c-0.007-43.36-35.142-78.487-78.487-78.502c-43.361,0.008-78.495,35.142-78.495,78.502
		c0,1.436,0,13.79,0,29.857H62.452l22.834-19.3l1.674-18.914h75.169c0.725-8.265,2.578-16.19,5.309-23.706H65.26l-2.724,30.813
		l-39.309,33.22l-0.316,5.047L0,496.536h512L488.765,125.844z M195.72,93.966c0.008-16.684,6.737-31.677,17.656-42.619
		c10.935-10.927,25.952-17.664,42.627-17.664c16.668,0,31.685,6.737,42.612,17.664c10.927,10.942,17.656,25.936,17.656,42.619
		v29.857H195.72C195.72,107.757,195.72,95.402,195.72,93.966z M25.233,472.83l20.89-333.203h131.386c0,26.561,0,56.425,0,65.322
		c-7.886,3.496-13.404,11.351-13.404,20.557c0,12.424,10.078,22.494,22.51,22.494c12.423,0,22.502-10.07,22.502-22.494
		c0-9.198-5.517-17.061-13.396-20.557c0-8.89,0-38.754,0-65.322h120.552v65.33c-7.871,3.496-13.381,11.352-13.381,20.55
		c0,12.424,10.062,22.494,22.486,22.494c12.44,0,22.51-10.07,22.51-22.494c0-9.198-5.509-17.061-13.396-20.557v-65.322h131.386
		l20.889,333.203H25.233z"/>
	<path class="st0" d="M286.693,61.903h-61.379l-0.764,0.625c-6.382,6.397-10.548,14.392-12.2,23.081h87.3
		c-1.644-8.689-5.819-16.691-12.216-23.096L286.693,61.903z"/>
    </symbol>
    <symbol id="heart" width="28px" height="28px" viewBox="0 0 24 24">
    <path d="M12 19.7501C11.8012 19.7499 11.6105 19.6708 11.47 19.5301L4.70001 12.7401C3.78387 11.8054 3.27072 10.5488 3.27072 9.24006C3.27072 7.9313 3.78387 6.6747 4.70001 5.74006C5.6283 4.81186 6.88727 4.29042 8.20001 4.29042C9.51274 4.29042 10.7717 4.81186 11.7 5.74006L12 6.00006L12.28 5.72006C12.739 5.25606 13.2857 4.88801 13.8883 4.63736C14.4909 4.3867 15.1374 4.25845 15.79 4.26006C16.442 4.25714 17.088 4.38382 17.6906 4.63274C18.2931 4.88167 18.8402 5.24786 19.3 5.71006C20.2161 6.6447 20.7293 7.9013 20.7293 9.21006C20.7293 10.5188 20.2161 11.7754 19.3 12.7101L12.53 19.5001C12.463 19.5752 12.3815 19.636 12.2904 19.679C12.1994 19.7219 12.1006 19.7461 12 19.7501ZM8.21001 5.75006C7.75584 5.74675 7.30551 5.83342 6.885 6.00505C6.4645 6.17669 6.08215 6.42989 5.76001 6.75006C5.11088 7.40221 4.74646 8.28491 4.74646 9.20506C4.74646 10.1252 5.11088 11.0079 5.76001 11.6601L12 17.9401L18.23 11.6801C18.5526 11.3578 18.8086 10.9751 18.9832 10.5538C19.1578 10.1326 19.2477 9.68107 19.2477 9.22506C19.2477 8.76905 19.1578 8.31752 18.9832 7.89627C18.8086 7.47503 18.5526 7.09233 18.23 6.77006C17.9104 6.44929 17.5299 6.1956 17.1109 6.02387C16.6919 5.85215 16.2428 5.76586 15.79 5.77006C15.3358 5.76675 14.8855 5.85342 14.465 6.02505C14.0445 6.19669 13.6621 6.44989 13.34 6.77006L12.53 7.58006C12.3869 7.71581 12.1972 7.79149 12 7.79149C11.8028 7.79149 11.6131 7.71581 11.47 7.58006L10.66 6.77006C10.3395 6.44628 9.95791 6.18939 9.53733 6.01429C9.11675 5.83919 8.66558 5.74937 8.21001 5.75006Z"/>
    </symbol>
    <symbol id="search" width="30px" height="30px" viewBox="0 0 24 24">
        <path d="M10.77 18.3C9.2807 18.3 7.82485 17.8584 6.58655 17.031C5.34825 16.2036 4.38311 15.0275 3.81318 13.6516C3.24325 12.2757 3.09413 10.7616 3.38468 9.30096C3.67523 7.84029 4.39239 6.49857 5.44548 5.44548C6.49857 4.39239 7.84029 3.67523 9.30096 3.38468C10.7616 3.09413 12.2757 3.24325 13.6516 3.81318C15.0275 4.38311 16.2036 5.34825 17.031 6.58655C17.8584 7.82485 18.3 9.2807 18.3 10.77C18.3 11.7588 18.1052 12.738 17.7268 13.6516C17.3484 14.5652 16.7937 15.3953 16.0945 16.0945C15.3953 16.7937 14.5652 17.3484 13.6516 17.7268C12.738 18.1052 11.7588 18.3 10.77 18.3ZM10.77 4.74999C9.58331 4.74999 8.42327 5.10189 7.43657 5.76118C6.44988 6.42046 5.68084 7.35754 5.22672 8.45389C4.77259 9.55025 4.65377 10.7566 4.88528 11.9205C5.11679 13.0844 5.68824 14.1535 6.52735 14.9926C7.36647 15.8317 8.43556 16.4032 9.59945 16.6347C10.7633 16.8662 11.9697 16.7474 13.0661 16.2933C14.1624 15.8391 15.0995 15.0701 15.7588 14.0834C16.4181 13.0967 16.77 11.9367 16.77 10.75C16.77 9.15869 16.1379 7.63257 15.0126 6.50735C13.8874 5.38213 12.3613 4.74999 10.77 4.74999Z"/>
        <path d="M20 20.75C19.9015 20.7504 19.8038 20.7312 19.7128 20.6934C19.6218 20.6557 19.5392 20.6001 19.47 20.53L15.34 16.4C15.2075 16.2578 15.1354 16.0697 15.1388 15.8754C15.1422 15.6811 15.221 15.4958 15.3584 15.3583C15.4958 15.2209 15.6812 15.1422 15.8755 15.1388C16.0698 15.1354 16.2578 15.2075 16.4 15.34L20.53 19.47C20.6704 19.6106 20.7493 19.8012 20.7493 20C20.7493 20.1987 20.6704 20.3893 20.53 20.53C20.4608 20.6001 20.3782 20.6557 20.2872 20.6934C20.1962 20.7312 20.0985 20.7504 20 20.75Z"/>
    </symbol>
    <symbol id="heart-active" width="35px" height="33px" viewBox="0 0 35 33">
        <path d="M16.3941 32.4987C16.675 32.7982 17.0563 32.9665 17.4538 32.9669C17.655 32.9584 17.8525 32.9069 18.0345 32.8156C18.2166 32.7241 18.3796 32.5947 18.5135 32.4349L32.0499 17.984C33.8816 15.9947 34.9077 13.3203 34.9077 10.535C34.9077 7.74961 33.8816 5.07524 32.0499 3.08608C31.1305 2.1024 30.0366 1.32305 28.832 0.793266C27.6271 0.263499 26.3354 -0.00610949 25.0318 0.000105036C23.7269 -0.00332146 22.4343 0.269629 21.2294 0.803098C20.0245 1.33655 18.9314 2.11985 18.0137 3.10737L17.4538 3.70328L16.854 3.14993C14.9979 1.17448 12.4807 0.0647195 9.85591 0.0647195C7.23114 0.0647195 4.71388 1.17448 2.85781 3.14993C1.02602 5.13909 0 7.81346 0 10.5988C0 13.3842 1.02602 16.0586 2.85781 18.0478L16.3941 32.4987Z" fill="#DF7474"/>
    </symbol>
    <symbol id="heart-unactive" width="35" height="33" viewBox="0 0 35 33">
        <path d="M17.5 32.9942C17.1025 32.9938 16.7212 32.8255 16.4403 32.526L2.90395 18.0751C1.07216 16.0858 0.0461426 13.4115 0.0461426 10.6261C0.0461426 7.84074 1.07216 5.16637 2.90395 3.17721C4.76003 1.20176 7.27729 0.0920022 9.90206 0.0920022C12.5268 0.0920022 15.044 1.20176 16.9001 3.17721L17.5 3.73056L18.0598 3.13465C18.9776 2.14714 20.0707 1.36383 21.2756 0.830381C22.4804 0.296911 23.7731 0.0239613 25.0779 0.0273878C26.3816 0.0211732 27.6732 0.290782 28.8781 0.820548C30.0828 1.35034 31.1767 2.12968 32.096 3.11337C33.9277 5.10252 34.9539 7.7769 34.9539 10.5623C34.9539 13.3476 33.9277 16.022 32.096 18.0113L18.5597 32.4622C18.4257 32.622 18.2628 32.7514 18.0806 32.8429C17.8987 32.9342 17.7011 32.9857 17.5 32.9942ZM9.92205 3.1985C9.01395 3.19145 8.11354 3.37591 7.27275 3.74118C6.43197 4.10648 5.66748 4.64535 5.02337 5.32676C3.72547 6.7147 2.99682 8.59332 2.99682 10.5516C2.99682 12.5099 3.72547 14.3886 5.02337 15.7766L17.5 29.1421L29.9566 15.8192C30.6016 15.1332 31.1135 14.3187 31.4626 13.4221C31.8117 12.5257 31.9915 11.5647 31.9915 10.5942C31.9915 9.6237 31.8117 8.66272 31.4626 7.76619C31.1135 6.86968 30.6016 6.0552 29.9566 5.36932C29.3176 4.68664 28.5568 4.14672 27.719 3.78124C26.8812 3.41577 25.9833 3.23212 25.0779 3.24106C24.1698 3.23402 23.2694 3.41847 22.4286 3.78375C21.5879 4.14904 20.8233 4.68792 20.1793 5.36932L18.5597 7.09321C18.2736 7.38212 17.8943 7.54319 17.5 7.54319C17.1057 7.54319 16.7264 7.38212 16.4403 7.09321L14.8207 5.36932C14.1799 4.68023 13.4169 4.1335 12.576 3.76085C11.735 3.38819 10.8329 3.19703 9.92205 3.1985Z"/>
    </symbol>
    <symbol id="close" width="40px" height="40px" viewBox="0 0 24 24">
        <path d="M6 6L18 18" stroke="#000000" stroke-linecap="round"/>
        <path d="M18 6L6.00001 18" stroke="#000000" stroke-linecap="round"/>
    </symbol>
    <symbol id="google-pay" height="30px" width="30px" viewBox="0 0 2387.3 948">
        <style type="text/css">
	        <!-- .st0{fill:#5F6368;}
	        .st1{fill:#4285F4;}
	        .st2{fill:#34A853;}
	        .st3{fill:#FBBC04;}
	        .st4{fill:#EA4335;} -->
        </style>
        <g>
	        <path class="st0" d="M1129.1,463.2V741h-88.2V54.8h233.8c56.4-1.2,110.9,20.2,151.4,59.4c41,36.9,64.1,89.7,63.2,144.8
		        c1.2,55.5-21.9,108.7-63.2,145.7c-40.9,39-91.4,58.5-151.4,58.4L1129.1,463.2L1129.1,463.2z M1129.1,139.3v239.6h147.8
		        c32.8,1,64.4-11.9,87.2-35.5c46.3-45,47.4-119.1,2.3-165.4c-0.8-0.8-1.5-1.6-2.3-2.3c-22.5-24.1-54.3-37.3-87.2-36.4L1129.1,139.3
		        L1129.1,139.3z M1692.5,256.2c65.2,0,116.6,17.4,154.3,52.2c37.7,34.8,56.5,82.6,56.5,143.2V741H1819v-65.2h-3.8
		        c-36.5,53.7-85.1,80.5-145.7,80.5c-51.7,0-95-15.3-129.8-46c-33.8-28.5-53-70.7-52.2-115c0-48.6,18.4-87.2,55.1-115.9
		        c36.7-28.7,85.7-43.1,147.1-43.1c52.3,0,95.5,9.6,129.3,28.7v-20.2c0.2-30.2-13.2-58.8-36.4-78c-23.3-21-53.7-32.5-85.1-32.1
		        c-49.2,0-88.2,20.8-116.9,62.3l-77.6-48.9C1545.6,286.8,1608.8,256.2,1692.5,256.2L1692.5,256.2z M1578.4,597.3
		        c-0.1,22.8,10.8,44.2,29.2,57.5c19.5,15.3,43.7,23.5,68.5,23c37.2-0.1,72.9-14.9,99.2-41.2c29.2-27.5,43.8-59.7,43.8-96.8
		        c-27.5-21.9-65.8-32.9-115-32.9c-35.8,0-65.7,8.6-89.6,25.9C1590.4,550.4,1578.4,571.7,1578.4,597.3L1578.4,597.3z M2387.3,271.5
		        L2093,948h-91l109.2-236.7l-193.6-439.8h95.8l139.9,337.3h1.9l136.1-337.3L2387.3,271.5z"/>
        </g>
        <path class="st1" d="M772.8,403.2c0-26.9-2.2-53.7-6.8-80.2H394.2v151.8h212.9c-8.8,49-37.2,92.3-78.7,119.8v98.6h127.1
	        C729.9,624.7,772.8,523.2,772.8,403.2L772.8,403.2z"/>
        <path class="st2" d="M394.2,788.5c106.4,0,196-34.9,261.3-95.2l-127.1-98.6c-35.4,24-80.9,37.7-134.2,37.7
	        c-102.8,0-190.1-69.3-221.3-162.7H42v101.6C108.9,704.5,245.2,788.5,394.2,788.5z"/>
        <path class="st3" d="M172.9,469.7c-16.5-48.9-16.5-102,0-150.9V217.2H42c-56,111.4-56,242.7,0,354.1L172.9,469.7z"/>
        <path class="st4" d="M394.2,156.1c56.2-0.9,110.5,20.3,151.2,59.1L658,102.7C586.6,35.7,492.1-1.1,394.2,0
	        C245.2,0,108.9,84.1,42,217.2l130.9,101.6C204.1,225.4,291.4,156.1,394.2,156.1z"/>
        </symbol>
</svg>